<svg width="1070" height="600" viewBox="0 0 1070 600" fill="none" xmlns="http://www.w3.org/2000/svg">
<path d="M522.458 365.799L770.874 714.344L743.054 717.075C620.627 728.93 501.157 674.347 429.823 574.261L248.555 319.929C336.812 257.026 459.613 277.623 522.516 365.881L522.458 365.799Z" fill="#084979" fill-opacity="0.25"/>
<path d="M1175.75 -340.904L1357.02 -86.5719C1428.35 13.5133 1441.03 144.336 1389.9 256.056L1378.24 281.463L1129.82 -67.0817L1130.07 -67.2561C1067.17 -155.514 1087.76 -278.315 1175.69 -340.986L1175.75 -340.904Z" fill="#084979" fill-opacity="0.25"/>
<path d="M695.236 240.44L1016.21 690.782L893.279 702.625L608.121 302.529C510.822 167.567 322.103 136.631 186.617 233.195L124.528 146.08C307.976 15.3311 563.672 57.5727 695.155 240.498L695.236 240.44Z" fill="#084979" fill-opacity="0.25"/>
<path d="M927.274 -689.532L989.363 -602.416C757.789 -437.367 703.683 -114.788 868.731 116.786L1225.11 616.804L1199.54 672.914L1138.15 678.777L843.694 265.631L782.418 180.519C699.864 64.6907 577.977 -6.74392 447.574 -28.6882C317.451 -50.5856 178.811 -22.9926 62.9827 59.5608L1.06754 -27.3101C207.519 -174.453 473.822 -177.042 679.053 -56.1502C631.158 -290.41 720.473 -542.016 927.332 -689.45L927.274 -689.532Z" fill="#084979" fill-opacity="0.25"/>
<path d="M1051.86 -514.732L1113.95 -427.617C977.893 -330.645 945.979 -141.229 1043.07 -5.00829L1327.18 393.619L1276.12 505.781L956.195 56.9068C824.924 -127.276 868.144 -383.67 1051.92 -514.651L1051.86 -514.732Z" fill="#084979" fill-opacity="0.25"/>
</svg>
