<svg width="100" height="100" viewBox="0 0 100 100" fill="none" xmlns="http://www.w3.org/2000/svg">
<g clip-path="url(#clip0_4380_3677)">
<path d="M48.45 0.411492C48.9221 0.141834 49.4563 0 50 0C50.5437 0 51.0779 0.141834 51.55 0.411492L74.9875 13.8052C75.4658 14.0785 75.8634 14.4732 76.14 14.9496C76.4165 15.4259 76.5623 15.9669 76.5625 16.5177V41.4865L98.425 53.9865C98.9015 54.2586 99.2979 54.6515 99.5743 55.1254C99.8508 55.5994 99.9976 56.1378 100 56.6865V83.474C99.9998 84.0248 99.854 84.5658 99.5775 85.0422C99.3009 85.5185 98.9033 85.9133 98.425 86.1865L74.9875 99.5802C74.5154 99.8499 73.9812 99.9917 73.4375 99.9917C72.8938 99.9917 72.3596 99.8499 71.8875 99.5802L50 87.0802L28.1125 99.5865C27.6404 99.8561 27.1062 99.998 26.5625 99.998C26.0188 99.998 25.4846 99.8561 25.0125 99.5865L1.575 86.1927C1.09671 85.9195 0.699123 85.5248 0.422534 85.0484C0.145945 84.5721 0.000177669 84.0311 0 83.4802L0 56.6927C0.000177669 56.1419 0.145945 55.6009 0.422534 55.1246C0.699123 54.6482 1.09671 54.2535 1.575 53.9802L23.4375 41.4865V16.5177C23.4377 15.9669 23.5834 15.4259 23.86 14.9496C24.1366 14.4732 24.5342 14.0785 25.0125 13.8052L48.45 0.411492ZM26.5625 46.899L9.425 56.6927L26.5625 66.4865L43.7 56.6927L26.5625 46.899ZM46.875 62.0802L29.6875 71.899V91.4865L46.875 81.6677V62.0802ZM53.125 81.6677L70.3125 91.4865V71.899L53.125 62.0802V81.6677ZM56.3 56.6927L73.4375 66.4865L90.575 56.6927L73.4375 46.899L56.3 56.6927ZM70.3125 41.4865V21.899L53.125 31.724V51.3115L70.3125 41.4865ZM46.875 51.3115V31.724L29.6875 21.899V41.4865L46.875 51.3115ZM32.8625 16.5177L50 26.3115L67.1375 16.5177L50 6.72399L32.8625 16.5177ZM93.75 62.0802L76.5625 71.899V91.4865L93.75 81.6677V62.0802ZM23.4375 91.4865V71.899L6.25 62.0802V81.6677L23.4375 91.4865Z" fill="#1396FD"/>
</g>
<defs>
<clipPath id="clip0_4380_3677">
<rect width="100" height="100" fill="white"/>
</clipPath>
</defs>
</svg>
