<svg width="100" height="100" viewBox="0 0 100 100" fill="none" xmlns="http://www.w3.org/2000/svg">
<g clip-path="url(#clip0_4380_3681)">
<path d="M25 100C25 100 18.75 100 18.75 93.75C18.75 87.5 25 68.75 50 68.75C75 68.75 81.25 87.5 81.25 93.75C81.25 100 75 100 75 100H25ZM50 62.8125C54.144 62.8125 58.1183 61.1663 61.0485 58.236C63.9788 55.3058 65.625 51.3315 65.625 47.1875C65.625 43.0435 63.9788 39.0692 61.0485 36.139C58.1183 33.2087 54.144 31.5625 50 31.5625C45.856 31.5625 41.8817 33.2087 38.9515 36.139C36.0212 39.0692 34.375 43.0435 34.375 47.1875C34.375 51.3315 36.0212 55.3058 38.9515 58.236C41.8817 61.1663 45.856 62.8125 50 62.8125Z" fill="#66D86E"/>
<path d="M12.5 6.25C9.18479 6.25 6.00537 7.56696 3.66117 9.91117C1.31696 12.2554 0 15.4348 0 18.75L0 78.125C0 80.6114 0.98772 82.996 2.74587 84.7541C4.50403 86.5123 6.8886 87.5 9.375 87.5H13.4563C14.7679 82.909 17.0387 78.6485 20.1188 75H6.25V18.75C6.25 17.0924 6.90848 15.5027 8.08058 14.3306C9.25268 13.1585 10.8424 12.5 12.5 12.5H87.5C89.1576 12.5 90.7473 13.1585 91.9194 14.3306C93.0915 15.5027 93.75 17.0924 93.75 18.75V75H79.8812C83.3438 79.0875 85.4437 83.5813 86.5437 87.5H90.625C93.1114 87.5 95.496 86.5123 97.2541 84.7541C99.0123 82.996 100 80.6114 100 78.125V18.75C100 15.4348 98.683 12.2554 96.3388 9.91117C93.9946 7.56696 90.8152 6.25 87.5 6.25H12.5Z" fill="#66D86E"/>
</g>
<defs>
<clipPath id="clip0_4380_3681">
<rect width="100" height="100" fill="white"/>
</clipPath>
</defs>
</svg>
