<svg width="100" height="100" viewBox="0 0 100 100" fill="none" xmlns="http://www.w3.org/2000/svg">
<path d="M58.1375 7.85057C57.3172 6.41667 56.1325 5.22499 54.7035 4.39618C53.2745 3.56736 51.6519 3.13086 50 3.13086C48.348 3.13086 46.7254 3.56736 45.2964 4.39618C43.8674 5.22499 42.6828 6.41667 41.8625 7.85057L31.2125 26.4756C30.8005 27.1958 30.6916 28.0502 30.9096 28.8507C31.1276 29.6513 31.6547 30.3324 32.375 30.7443C33.0952 31.1562 33.9495 31.2652 34.7501 31.0472C35.5506 30.8291 36.2318 30.302 36.6437 29.5818L47.2875 10.9506C47.5609 10.4726 47.9558 10.0754 48.4321 9.79911C48.9084 9.52284 49.4493 9.37733 50 9.37733C50.5506 9.37733 51.0915 9.52284 51.5678 9.79911C52.0441 10.0754 52.439 10.4726 52.7125 10.9506L68.5875 38.7256L60.7375 36.6193C59.9368 36.4038 59.0834 36.5152 58.3649 36.929C57.6464 37.3427 57.1217 38.0249 56.9062 38.8256C56.6907 39.6262 56.8021 40.4796 57.2159 41.1981C57.6296 41.9166 58.3118 42.4413 59.1125 42.6568L74.2062 46.7006C74.6026 46.8074 75.0162 46.8351 75.4234 46.7821C75.8305 46.729 76.2232 46.5962 76.579 46.3913C76.9348 46.1865 77.2467 45.9135 77.497 45.588C77.7472 45.2625 77.9309 44.8908 78.0375 44.4943L82.0812 29.4006C82.1875 29.0041 82.2147 28.5907 82.1611 28.1837C82.1076 27.7768 81.9745 27.3844 81.7693 27.0289C81.5642 26.6735 81.291 26.3619 80.9654 26.112C80.6399 25.8621 80.2683 25.6787 79.8718 25.5724C79.4754 25.4662 79.0619 25.439 78.655 25.4925C78.2481 25.546 77.8557 25.6791 77.5002 25.8843C77.1447 26.0895 76.8331 26.3626 76.5832 26.6882C76.3333 27.0138 76.15 27.3854 76.0437 27.7818L73.9624 35.5443L58.1375 7.85057ZM18.5812 48.5818L10.7375 50.6881C9.93683 50.9036 9.0834 50.7922 8.3649 50.3784C7.6464 49.9647 7.12169 49.2824 6.90621 48.4818C6.69072 47.6812 6.8021 46.8278 7.21585 46.1093C7.6296 45.3908 8.31183 44.8661 9.11246 44.6506L24.2125 40.6068C25.0122 40.3929 25.8642 40.5051 26.5813 40.9187C27.2985 41.3324 27.8222 42.0137 28.0375 42.8131L32.0812 57.9068C32.2959 58.7075 32.1837 59.5606 31.7693 60.2785C31.355 60.9964 30.6725 61.5203 29.8718 61.735C29.0712 61.9496 28.2181 61.8374 27.5002 61.4231C26.7823 61.0088 26.2584 60.3262 26.0437 59.5256L23.9625 51.7631L8.05621 79.6006C7.78477 80.0758 7.64288 80.6139 7.64473 81.1611C7.64658 81.7084 7.7921 82.2455 8.06674 82.7189C8.34138 83.1922 8.7355 83.5851 9.20968 83.8583C9.68386 84.1315 10.2215 84.2754 10.7687 84.2756H31.25C32.0788 84.2756 32.8736 84.6048 33.4597 85.1909C34.0457 85.7769 34.375 86.5718 34.375 87.4006C34.375 88.2294 34.0457 89.0242 33.4597 89.6103C32.8736 90.1963 32.0788 90.5256 31.25 90.5256H10.7687C9.12697 90.525 7.51416 90.0934 6.09163 89.2738C4.6691 88.4543 3.48673 87.2755 2.66281 85.8555C1.8389 84.4355 1.40233 82.824 1.39678 81.1823C1.39123 79.5405 1.81691 77.9261 2.63121 76.5006L18.5812 48.5818ZM86.6437 57.7256C86.4456 57.3591 86.1763 57.0359 85.8515 56.775C85.5267 56.5141 85.153 56.3208 84.7524 56.2064C84.3518 56.0921 83.9324 56.0589 83.5188 56.109C83.1052 56.1591 82.7058 56.2914 82.3441 56.4981C81.9824 56.7048 81.6656 56.9817 81.4125 57.3126C81.1594 57.6435 80.975 58.0217 80.8701 58.4249C80.7653 58.8281 80.7421 59.2481 80.8019 59.6604C80.8618 60.0727 81.0035 60.4689 81.2187 60.8256L91.9437 79.6006C92.2151 80.0758 92.357 80.6139 92.3552 81.1611C92.3533 81.7084 92.2078 82.2455 91.9332 82.7189C91.6585 83.1922 91.2644 83.5851 90.7902 83.8583C90.3161 84.1315 89.7785 84.2754 89.2312 84.2756H54.4187L58.4625 80.2381C59.0484 79.6513 59.3773 78.8558 59.3767 78.0265C59.3761 77.1972 59.0461 76.4022 58.4593 75.8162C58.1688 75.5261 57.8239 75.296 57.4445 75.1391C57.065 74.9823 56.6584 74.9017 56.2477 74.902C55.4185 74.9026 54.6234 75.2325 54.0375 75.8193L44.6625 85.1943C44.0766 85.7803 43.7475 86.5751 43.7475 87.4037C43.7475 88.2323 44.0766 89.0271 44.6625 89.6131L54.0375 98.9881C54.6234 99.5749 55.4185 99.9049 56.2477 99.9054C56.6584 99.9057 57.065 99.8251 57.4445 99.6683C57.8239 99.5114 58.1688 99.2813 58.4593 98.9912C58.7499 98.7011 58.9804 98.3565 59.1378 97.9773C59.2952 97.5981 59.3764 97.1915 59.3767 96.7809C59.377 96.3703 59.2964 95.9637 59.1395 95.5842C58.9827 95.2047 58.7526 94.8599 58.4625 94.5693L54.4187 90.5256H89.2312C90.8729 90.525 92.4857 90.0934 93.9083 89.2738C95.3308 88.4543 96.5132 87.2755 97.3371 85.8555C98.161 84.4355 98.5976 82.824 98.6031 81.1823C98.6087 79.5405 98.183 77.9261 97.3687 76.5006L86.6437 57.7256Z" fill="#FD9A33"/>
</svg>
