<svg width="266" height="587" viewBox="0 0 266 587" fill="none" xmlns="http://www.w3.org/2000/svg">
<path d="M370.877 328.616C370.341 285.438 404.263 249.934 446.398 249.412L446.398 249.451L447.941 373.878C448.549 422.843 423.511 468.533 382.265 493.471L372.875 499.136L370.76 328.618L370.877 328.616ZM287.508 329.73C286.39 239.622 357.282 165.543 445.343 164.45L445.872 207.03C380.676 207.839 328.306 262.57 329.133 329.213L331.553 524.234L290.232 549.333L287.508 329.73ZM3.60761e-05 85.0815C98.9267 83.8543 184.888 143.535 223.799 229.741C260.554 142.197 345.161 80.1614 444.283 78.9317L444.811 121.511C333.846 122.888 244.739 216.151 246.145 329.444L249.179 574.068L228.499 586.617L207.514 574.585L205.007 372.461L204.293 330.681C203.589 274.015 180.4 222.936 143.47 186.116C106.62 149.375 56.0296 126.893 0.527623 127.582L3.60761e-05 85.0815ZM1.01183 169.884C88.9163 168.794 161.504 240.733 162.969 330.477L163.008 330.476L165.741 550.798L123.693 526.734L121.265 330.994C120.09 264.715 66.4628 211.698 1.54107 212.504L1.01183 169.884ZM2.10764 254.962C44.3984 254.438 79.19 289.089 79.726 332.267L81.8413 502.746L72.3131 497.316C30.4223 473.37 4.25872 428.354 3.65113 379.39L2.10764 254.962ZM221.143 4.31316e-05C229.598 35.6165 257.504 63.4089 292.587 71.1557C257.707 79.7704 230.499 108.246 222.93 144.061C214.474 108.445 186.569 80.6531 151.486 72.9063C186.367 64.2916 213.573 35.8153 221.143 4.31316e-05Z" fill="url(#paint0_linear_4376_1529)" fill-opacity="0.4"/>
<defs>
<linearGradient id="paint0_linear_4376_1529" x1="7.91621" y1="259.416" x2="414.628" y2="114.415" gradientUnits="userSpaceOnUse">
<stop stop-color="#043559" stop-opacity="0.67"/>
<stop offset="1" stop-color="#043458" stop-opacity="0"/>
</linearGradient>
</defs>
</svg>
