<svg width="256" height="95" viewBox="0 0 256 95" fill="none" xmlns="http://www.w3.org/2000/svg">
<path d="M98.1305 23.9758C97.0666 23.0593 94.9003 22.2261 91.6638 21.5083C89.3437 20.9828 87.8568 20.5406 87.1134 20.1496C86.0495 19.5728 85.8252 18.7717 85.8252 18.1949C85.8252 17.1054 86.2161 16.2401 87.0109 15.6249C87.7543 15.0288 88.8054 14.7212 90.0936 14.7212C91.5677 14.7212 92.7854 15.0801 93.7147 15.7595C94.5799 16.4068 95.1054 17.2399 95.2721 18.2782H99.0277C98.7906 16.3363 97.9638 14.7533 96.5731 13.5804C95.067 12.305 93.0674 11.6577 90.6512 11.6577C88.0427 11.6577 85.947 12.2858 84.4409 13.5099C82.9347 14.734 82.2041 16.3491 82.2041 18.4448C82.2041 20.297 82.7425 21.6109 83.8448 22.4633C85.0113 23.3669 87.3826 24.2129 90.9011 25.0141C92.9328 25.4755 94.2338 25.8985 94.8811 26.3407C95.6117 26.815 95.9834 27.5841 95.9834 28.5839C95.9834 29.5837 95.49 30.4232 94.4966 30.9808C93.5801 31.5256 92.3303 31.7819 90.7409 31.7819C89.1515 31.7819 87.9466 31.423 87.0365 30.7116C86.2097 30.0643 85.7355 29.1479 85.6009 28.007H81.8965C82.0631 30.1156 82.8771 31.7819 84.2806 32.9612C85.8188 34.2174 87.985 34.8647 90.7473 34.8647C93.5096 34.8647 95.7079 34.2494 97.3165 33.0637C98.8931 31.8717 99.6686 30.3271 99.6686 28.3019C99.6686 26.2766 99.1431 24.8666 98.1433 23.9822L98.1305 23.9758Z" fill="white"/>
<path d="M116.832 30.2694C115.851 31.1346 114.595 31.5769 113.108 31.5769C111.211 31.5769 109.705 30.8142 108.622 29.3337C107.59 27.8853 107.065 25.8793 107.065 23.3605C107.065 20.8418 107.59 18.714 108.622 17.2335C109.705 15.7018 111.211 14.9391 113.108 14.9391C114.595 14.9391 115.851 15.3301 116.813 16.1312C117.71 16.849 118.268 17.7975 118.485 18.9576H122.395C122.023 16.7977 121.055 15.0609 119.485 13.7663C117.793 12.3691 115.646 11.6577 113.07 11.6577C110.026 11.6577 107.571 12.7152 105.776 14.7917C103.982 16.8875 103.065 19.7971 103.065 23.4054C103.065 27.0137 103.963 29.7503 105.776 31.814C107.552 33.8392 110.006 34.8775 113.07 34.8775C115.678 34.8775 117.845 34.1276 119.517 32.6472C121.094 31.2692 122.055 29.4106 122.395 27.1162H118.485C118.28 28.4108 117.723 29.4811 116.826 30.2822L116.832 30.2694Z" fill="white"/>
<path d="M140.359 12.2856V20.8288H130.643V12.2856H126.753V34.2364H130.643V23.9051H140.359V34.2364H144.269V12.2856H140.359Z" fill="white"/>
<path d="M166.861 14.7854C165.002 12.7089 162.426 11.6514 159.208 11.6514C155.991 11.6514 153.453 12.7089 151.575 14.7982C149.678 16.8939 148.73 19.7844 148.73 23.3926C148.73 27.0009 149.678 29.7375 151.556 31.782C153.434 33.8265 156.01 34.8647 159.208 34.8647C162.406 34.8647 164.996 33.8265 166.873 31.782C168.751 29.7375 169.7 26.9176 169.7 23.3926C169.7 19.8677 168.751 16.8939 166.854 14.779L166.861 14.7854ZM164.086 29.4235C162.9 30.904 161.278 31.6666 159.208 31.6666C157.138 31.6666 155.504 30.904 154.331 29.4235C153.197 27.9622 152.607 25.9178 152.607 23.367C152.607 20.8162 153.197 18.65 154.35 17.1567C155.517 15.6249 157.157 14.8623 159.208 14.8623C161.259 14.8623 162.913 15.6249 164.086 17.1567C165.239 18.6564 165.81 20.7457 165.81 23.367C165.81 25.9883 165.233 27.9622 164.086 29.4235Z" fill="white"/>
<path d="M178.236 31.0384V12.2856H174.346V34.2364H189.529V31.0384H178.243H178.236Z" fill="white"/>
<path d="M204.667 12.2856H199.758L192.041 34.2364H196.021L197.527 29.6091H206.75L208.275 34.2364H212.403L204.667 12.2856ZM198.559 26.5264L202.148 15.5863L205.769 26.5264H198.559Z" fill="white"/>
<path d="M233.879 33.4674C233.726 33.0957 233.642 32.5317 233.61 31.7306L233.508 27.9877C233.476 26.3022 232.88 25.1293 231.694 24.4307C231.489 24.2962 231.252 24.1936 231.002 24.0911L229.951 23.7001L231.002 23.2899C231.457 23.1169 231.88 22.899 232.239 22.6619C233.61 21.7069 234.27 20.2649 234.27 18.2012C234.27 16.4131 233.681 15.0031 232.425 13.9136C231.188 12.8241 229.528 12.2793 227.483 12.2793H216.485V34.2301H220.376V25.2255H225.503C226.958 25.2255 227.99 25.4626 228.65 25.9561C229.342 26.4688 229.701 27.3148 229.733 28.4748L229.765 30.5834C229.765 31.4678 229.816 32.3202 229.899 33.0701C229.97 33.6661 230.053 34.0058 230.105 34.2109H234.508C234.219 34.0058 234.001 33.7494 233.879 33.461V33.4674ZM229.31 21.3865C228.618 21.9633 227.599 22.2389 226.278 22.2389H220.369V15.3492H226.464C227.714 15.3492 228.701 15.6376 229.361 16.2144C230.04 16.7912 230.374 17.6628 230.374 18.7844C230.374 19.906 230.021 20.8097 229.31 21.3865Z" fill="white"/>
<path d="M254.407 23.9758C253.356 23.0593 251.19 22.2261 247.96 21.5083C245.627 20.9828 244.134 20.5406 243.41 20.1496C242.346 19.5728 242.121 18.7717 242.121 18.1949C242.121 17.1054 242.512 16.2401 243.288 15.6249C244.051 15.0288 245.102 14.7212 246.383 14.7212C247.858 14.7212 249.075 15.0801 250.005 15.7595C250.87 16.4068 251.376 17.2399 251.543 18.2782H255.318C255.061 16.3363 254.254 14.7533 252.863 13.5804C251.357 12.305 249.357 11.6577 246.941 11.6577C244.333 11.6577 242.237 12.2858 240.731 13.5099C239.225 14.734 238.494 16.3491 238.494 18.4448C238.494 20.297 239.02 21.6109 240.122 22.4633C241.288 23.3669 243.679 24.2129 247.178 25.0141C249.229 25.4755 250.53 25.8985 251.158 26.3407C251.902 26.815 252.273 27.5841 252.273 28.5839C252.273 29.5837 251.767 30.4232 250.786 30.9808C249.87 31.5256 248.601 31.7819 247.031 31.7819C245.461 31.7819 244.224 31.423 243.326 30.7116C242.5 30.0643 242.006 29.1479 241.891 28.007H238.167C238.353 30.1156 239.148 31.7819 240.57 32.9612C242.096 34.2174 244.275 34.8647 247.037 34.8647C249.799 34.8647 251.998 34.2494 253.587 33.0637C255.177 31.8717 255.939 30.3271 255.939 28.3019C255.939 26.2766 255.433 24.8666 254.414 23.9822L254.407 23.9758Z" fill="white"/>
<path d="M97.1821 43.7414V40.5562H81.8838V62.5069H85.7741V52.855H95.708V49.7915H85.7741V43.735H97.1821V43.7414Z" fill="white"/>
<path d="M112.211 40.5562H107.302L99.5856 62.5069H103.566L105.072 57.8797H114.281L115.82 62.5069H119.947L112.211 40.5562ZM106.104 54.7969L109.693 43.8568L113.314 54.7969H106.104Z" fill="white"/>
<path d="M136.751 58.5458C135.77 59.411 134.514 59.8532 133.027 59.8532C131.13 59.8532 129.624 59.0906 128.56 57.6101C127.509 56.1616 126.984 54.1556 126.984 51.6369C126.984 49.1182 127.509 46.9904 128.56 45.5099C129.624 43.9782 131.13 43.2155 133.027 43.2155C134.514 43.2155 135.77 43.6064 136.732 44.4076C137.629 45.1254 138.187 46.0739 138.405 47.2339H142.314C141.942 45.0741 140.975 43.3373 139.404 42.0426C137.712 40.6455 135.565 39.9341 132.989 39.9341C129.945 39.9341 127.49 40.9916 125.695 43.0681C123.901 45.1638 122.984 48.0735 122.984 51.6818C122.984 55.29 123.901 58.0267 125.695 60.0904C127.49 62.1156 129.945 63.1539 132.989 63.1539C135.597 63.1539 137.764 62.404 139.456 60.9235C141.013 59.5456 141.974 57.687 142.314 55.3926H138.424C138.206 56.6872 137.648 57.7575 136.751 58.5586V58.5458Z" fill="white"/>
<path d="M144.878 40.5562V43.7414H151.748V62.5134H155.638V43.7414H162.477V40.5562H144.878Z" fill="white"/>
<path d="M183.261 43.0554C181.383 40.9789 178.807 39.9214 175.609 39.9214C172.411 39.9214 169.841 40.9789 167.957 43.0682C166.079 45.1639 165.111 48.0544 165.111 51.6627C165.111 55.2709 166.079 58.0076 167.957 60.052C169.835 62.0965 172.411 63.1347 175.609 63.1347C178.807 63.1347 181.396 62.0965 183.261 60.052C185.139 58.0076 186.107 55.1876 186.107 51.6627C186.107 48.1377 185.139 45.1639 183.261 43.049V43.0554ZM180.467 57.6935C179.301 59.174 177.66 59.9367 175.609 59.9367C173.558 59.9367 171.905 59.174 170.732 57.6935C169.578 56.2323 169.008 54.1878 169.008 51.637C169.008 49.0862 169.585 46.92 170.732 45.4267C171.917 43.895 173.539 43.1323 175.609 43.1323C177.679 43.1323 179.301 43.895 180.486 45.4267C181.621 46.9264 182.21 49.0157 182.21 51.637C182.21 54.2583 181.621 56.2323 180.467 57.6935Z" fill="white"/>
<path d="M208.141 61.7443C207.987 61.3726 207.904 60.8086 207.884 60.0074L207.769 56.2646C207.737 54.5598 207.141 53.4062 205.955 52.7076C205.75 52.573 205.513 52.4705 205.263 52.3679L204.212 51.977L205.263 51.5668C205.718 51.3938 206.141 51.1759 206.513 50.9387C207.865 50.003 208.525 48.5418 208.525 46.4781C208.525 44.6771 207.936 43.28 206.699 42.1904C205.449 41.1009 203.789 40.5562 201.738 40.5562H190.74V62.5069H194.631V53.5023H199.758C201.213 53.5023 202.245 53.7394 202.905 54.2329C203.597 54.7457 203.956 55.5916 203.988 56.7517L204.02 58.8602C204.039 59.7447 204.071 60.5778 204.174 61.3469C204.244 61.943 204.308 62.3019 204.359 62.4877H208.762C208.474 62.2826 208.269 62.0263 208.134 61.7379L208.141 61.7443ZM203.571 49.6633C202.879 50.2401 201.86 50.5157 200.559 50.5157H194.637V43.6261H200.732C201.982 43.6261 202.969 43.9145 203.629 44.4913C204.308 45.0681 204.661 45.9397 204.661 47.0613C204.661 48.1829 204.289 49.0865 203.578 49.6633H203.571Z" fill="white"/>
<path d="M226.266 40.5562L221.581 51.0413L216.588 40.5562H211.935L219.549 54.2522V62.5069H223.439L223.49 54.0663L230.669 40.5562H226.266Z" fill="white"/>
<path d="M97.2014 80.452C97.0732 80.452 96.9771 80.3431 96.9258 80.1316C96.8745 79.9201 96.8489 79.6253 96.8489 79.2599C96.8489 78.9139 96.8745 78.6383 96.9258 78.4332C96.9771 78.2281 97.0732 78.1191 97.2014 78.1191V80.4456V80.452ZM97.2014 80.452V78.1256H97.0924V80.452H97.2014ZM97.0924 80.452V78.1256C97.2206 78.1256 97.3167 78.2345 97.368 78.446C97.4193 78.6575 97.4449 78.9395 97.4449 79.2792C97.4449 79.6188 97.4193 79.9201 97.368 80.1316C97.3167 80.3431 97.2206 80.452 97.0924 80.452Z" fill="white"/>
<path d="M106.904 80.452C106.776 80.452 106.68 80.3431 106.629 80.1316C106.578 79.9201 106.552 79.6253 106.552 79.2599C106.552 78.9139 106.578 78.6383 106.629 78.4332C106.68 78.2281 106.776 78.1191 106.904 78.1191V80.4456V80.452ZM106.904 80.452V78.1256H108.661V80.452H106.904ZM108.661 80.452V78.1256C108.789 78.1256 108.885 78.2345 108.936 78.446C108.987 78.6575 109.013 78.9395 109.013 79.2792C109.013 79.6188 108.987 79.9201 108.936 80.1316C108.885 80.3431 108.789 80.452 108.661 80.452Z" fill="white"/>
<path d="M108.661 80.4518C108.532 80.4518 108.436 80.3429 108.385 80.1314C108.334 79.9199 108.308 79.6251 108.308 79.2597C108.308 78.9137 108.334 78.6381 108.385 78.433C108.436 78.2279 108.532 78.1189 108.661 78.1189V80.4454V80.4518ZM108.661 80.4518V78.1254C109.218 78.1254 109.68 78.0228 110.045 77.8113C110.41 77.5998 110.744 77.3114 111.032 76.9397C111.32 76.568 111.609 76.1386 111.897 75.6515C112.179 75.19 112.48 74.7286 112.794 74.2671C113.108 73.8057 113.461 73.3891 113.845 73.011C114.23 72.6329 114.653 72.338 115.114 72.1073C115.576 71.8766 116.101 71.7612 116.697 71.7612C117.338 71.7612 117.89 71.8958 118.351 72.1586C118.812 72.4278 119.191 72.7867 119.479 73.2417C119.767 73.6967 119.985 74.2095 120.12 74.7799C120.254 75.3503 120.325 75.9335 120.325 76.5359C120.325 77.1384 120.242 77.8626 120.075 78.6253C119.908 79.3879 119.646 80.0993 119.274 80.7466L117.46 79.6956C117.729 79.2213 117.941 78.715 118.082 78.1766C118.223 77.6383 118.293 77.0871 118.293 76.5295C118.293 75.6899 118.152 75.0683 117.877 74.6645C117.601 74.2607 117.204 74.0621 116.697 74.0621C116.364 74.0621 116.044 74.1454 115.736 74.3184C115.428 74.4915 115.108 74.7799 114.775 75.19C114.442 75.6002 114.057 76.1578 113.621 76.8692C113.121 77.6767 112.641 78.3433 112.173 78.8752C111.705 79.4072 111.192 79.8045 110.635 80.0545C110.077 80.3108 109.417 80.439 108.661 80.439V80.4518ZM119.165 78.4458L119.274 80.753C118.184 80.8107 117.236 80.8043 116.428 80.7274C115.621 80.6505 114.922 80.5095 114.32 80.3044C113.724 80.0993 113.185 79.8366 112.717 79.5161C112.25 79.1957 111.814 78.8303 111.41 78.4138L112.833 76.8692C113.262 77.305 113.749 77.6575 114.307 77.9074C114.865 78.1638 115.537 78.3304 116.326 78.4138C117.114 78.4971 118.056 78.5099 119.159 78.4522L119.165 78.4458ZM122.043 80.4518C121.235 80.4518 120.569 80.3108 120.043 80.0288C119.517 79.7468 119.12 79.3174 118.851 78.7598C118.582 78.1959 118.454 77.4973 118.454 76.6577V76.2475L120.267 76.2988L120.306 76.709C120.306 77.0999 120.351 77.4011 120.44 77.6062C120.53 77.8177 120.697 77.9523 120.947 78.0228C121.197 78.0933 121.562 78.1318 122.049 78.1318H122.76V80.4582H122.049L122.043 80.4518ZM122.754 80.4518V78.1254C122.876 78.1254 122.959 78.2343 123.023 78.4458C123.087 78.6573 123.113 78.9393 123.113 79.279C123.113 79.6186 123.081 79.9199 123.023 80.1314C122.965 80.3429 122.876 80.4518 122.754 80.4518Z" fill="white"/>
<path d="M85.8318 77.895C85.3319 77.7412 84.9409 77.5297 84.6589 77.2541C84.3769 76.9785 84.236 76.6773 84.236 76.344C84.236 76.0107 84.3769 75.7031 84.6525 75.4467C84.9281 75.1904 85.3191 74.9853 85.8062 74.8315C86.2996 74.6777 86.8636 74.6008 87.5045 74.6008C87.8698 74.6008 88.2544 74.6264 88.6582 74.6777C89.0619 74.7289 89.4144 74.7994 89.722 74.8827L90.5232 72.9601C90.0874 72.7486 89.5939 72.5819 89.0555 72.4601C88.5172 72.3448 87.9724 72.2871 87.4276 72.2871C86.7611 72.2871 86.1266 72.3704 85.5242 72.5371C84.9217 72.7037 84.3834 72.9472 83.9091 73.2741C83.4348 73.601 83.0631 74.0047 82.7875 74.4918C82.5183 74.9789 82.3773 75.5365 82.3773 76.1645C82.3773 76.9464 82.5888 77.6002 83.0118 78.1193H81.8774V80.4458H90.9974V78.1193H87.5302C86.8893 78.1193 86.3189 78.0424 85.8254 77.8886L85.8318 77.895Z" fill="white"/>
<path d="M107.141 78.1256H95.1246V65.6665H93.0994V80.452H107.141C107.27 80.452 107.366 80.3431 107.417 80.1316C107.468 79.9201 107.494 79.6317 107.494 79.2792C107.494 78.9267 107.468 78.6575 107.417 78.446C107.366 78.2345 107.27 78.1256 107.141 78.1256Z" fill="white"/>
<path d="M129.528 78.446C129.471 78.2345 129.381 78.1256 129.259 78.1256H128.887C128.4 78.1256 128.029 78.0871 127.779 78.0102C127.522 77.9333 127.356 77.7859 127.272 77.5744C127.189 77.3629 127.15 77.0553 127.15 76.6515V65.6665H125.125V76.6515C125.125 77.0553 125.08 77.3629 124.991 77.5744C124.901 77.7859 124.734 77.9333 124.491 78.0102C124.247 78.0871 123.869 78.1256 123.363 78.1256H122.76C122.632 78.1256 122.536 78.2281 122.485 78.4396C122.433 78.6447 122.408 78.9203 122.408 79.2664C122.408 79.6317 122.433 79.9201 122.485 80.138C122.536 80.3495 122.632 80.4585 122.76 80.4585H123.363C124.228 80.4585 124.939 80.3175 125.497 80.0355C125.741 79.9137 125.946 79.7599 126.138 79.5804C126.324 79.7535 126.529 79.9073 126.772 80.0355C127.324 80.3175 128.029 80.4585 128.894 80.4585H129.265C129.387 80.4585 129.471 80.3495 129.535 80.138C129.592 79.9265 129.624 79.6381 129.624 79.2856C129.624 78.9331 129.592 78.6639 129.535 78.4524L129.528 78.446Z" fill="white"/>
<path d="M142.814 78.446C142.763 78.2345 142.673 78.1256 142.538 78.1256H138.494C138.789 77.9141 139.065 77.6962 139.328 77.459C139.821 77.0168 140.212 76.5361 140.5 76.0298C140.789 75.5171 140.936 74.998 140.936 74.466C140.936 73.8187 140.718 73.2483 140.289 72.7677C139.86 72.287 139.251 71.9088 138.469 71.6397C137.687 71.3641 136.777 71.2295 135.751 71.2295C135.053 71.2295 134.425 71.2872 133.861 71.4025C133.297 71.5243 132.778 71.6589 132.303 71.8127L130.688 74.4212C131.034 75.6325 131.586 76.6835 132.342 77.5872C132.496 77.7731 132.656 77.9461 132.829 78.1127C132.713 78.1192 132.605 78.1256 132.496 78.1256H129.259C129.131 78.1256 129.035 78.2281 128.983 78.4332C128.932 78.6383 128.9 78.9203 128.9 79.26C128.9 79.6253 128.926 79.9137 128.983 80.1252C129.035 80.3367 129.124 80.4456 129.259 80.4456H132.124C132.617 80.4456 133.181 80.3751 133.809 80.2341C134.303 80.1188 134.816 79.9714 135.328 79.7727C136.392 80.2277 137.584 80.4456 138.892 80.4456H142.538C142.667 80.4456 142.763 80.3431 142.814 80.1252C142.865 79.9137 142.897 79.6253 142.897 79.2728C142.897 78.9203 142.872 78.6511 142.814 78.4332V78.446ZM137.379 76.3823C136.911 76.69 136.392 76.9784 135.835 77.2347C135.681 77.3052 135.527 77.3757 135.367 77.4398C134.617 77.0617 133.989 76.549 133.489 75.8952C133.085 75.3633 132.778 74.7737 132.573 74.1071L132.624 74.043C133.169 73.8636 133.681 73.729 134.162 73.6393C134.643 73.5495 135.149 73.5047 135.681 73.5047C136.322 73.5047 136.886 73.5624 137.366 73.6841C137.854 73.8059 138.232 73.9533 138.507 74.1264C138.776 74.3058 138.917 74.4981 138.917 74.716C138.917 74.9403 138.783 75.2031 138.501 75.4915C138.225 75.7863 137.854 76.0811 137.386 76.3887L137.379 76.3823Z" fill="white"/>
<path d="M142.538 80.452C142.41 80.452 142.314 80.3431 142.263 80.1316C142.211 79.9201 142.179 79.6253 142.179 79.26C142.179 78.9139 142.205 78.6383 142.263 78.4332C142.314 78.2281 142.404 78.1192 142.538 78.1192V80.4456V80.452ZM142.538 80.452V78.1256H144.903V65.6665H146.928V80.452H142.538Z" fill="white"/>
<path d="M149.383 80.452V65.6665H151.408V80.452H149.383Z" fill="white"/>
<path d="M170.706 78.4459C170.648 78.2344 170.558 78.1255 170.443 78.1255V80.452C170.558 80.452 170.648 80.3494 170.706 80.1315C170.763 79.92 170.795 79.6316 170.795 79.2791C170.795 78.9266 170.763 78.6574 170.706 78.4395V78.4459Z" fill="white"/>
<path d="M161.477 80.6188C161.823 80.3688 162.22 80.1253 162.656 79.8882C162.823 79.7984 162.996 79.7151 163.169 79.6254C163.214 79.651 163.259 79.6703 163.304 79.6895C164.412 80.1958 165.662 80.4457 167.046 80.4457H170.443V78.1193H166.623C166.457 78.1193 166.29 78.1193 166.13 78.1001C166.553 77.8501 166.95 77.5809 167.316 77.2989C167.79 76.9336 168.168 76.5234 168.444 76.0748C168.719 75.6262 168.86 75.1135 168.86 74.5431C168.86 73.8445 168.636 73.2484 168.2 72.755C167.764 72.2615 167.162 71.8833 166.399 71.6206C165.636 71.3514 164.758 71.2168 163.759 71.2168C163.13 71.2168 162.547 71.2745 162.002 71.3898C161.458 71.5052 160.939 71.6462 160.458 71.8L158.856 74.4085C159.189 75.6198 159.734 76.6708 160.496 77.5745C160.727 77.8437 160.964 78.0936 161.227 78.318C161.201 78.3308 161.182 78.3436 161.163 78.3564C160.541 78.7153 160.016 79.087 159.599 79.478C159.176 79.8689 158.856 80.3176 158.638 80.8111C158.42 81.3045 158.311 81.8878 158.311 82.5479C158.311 83.1439 158.401 83.7015 158.587 84.2463C158.772 84.7846 159.074 85.2653 159.484 85.6819C159.9 86.1049 160.439 86.4381 161.105 86.6817C161.778 86.9252 162.586 87.0406 163.534 87.0406C164.323 87.0406 165.085 86.9573 165.809 86.7842C166.534 86.6112 167.168 86.3676 167.713 86.0472L166.752 84.0604C166.527 84.1886 166.239 84.304 165.886 84.4001C165.54 84.4962 165.175 84.5731 164.79 84.6308C164.412 84.6885 164.047 84.7205 163.688 84.7205C163.022 84.7205 162.438 84.618 161.938 84.4193C161.439 84.2142 161.041 83.9386 160.759 83.5797C160.477 83.2272 160.33 82.8363 160.33 82.4069C160.33 82.0416 160.432 81.7083 160.644 81.4199C160.849 81.1251 161.131 80.8559 161.483 80.5996L161.477 80.6188ZM161.637 75.889C161.233 75.3634 160.932 74.7738 160.727 74.1201L160.791 74.0367C161.323 73.8573 161.823 73.7227 162.284 73.633C162.746 73.5433 163.207 73.4984 163.669 73.4984C164.284 73.4984 164.829 73.5561 165.303 73.665C165.777 73.7804 166.149 73.9342 166.425 74.1265C166.694 74.3187 166.835 74.5367 166.835 74.7738C166.835 75.0366 166.681 75.2993 166.367 75.5621C166.053 75.8313 165.624 76.1004 165.085 76.3696C164.547 76.6452 163.944 76.94 163.284 77.2605C163.271 77.2669 163.259 77.2733 163.246 77.2797C162.611 76.9208 162.079 76.4529 161.637 75.8825V75.889Z" fill="white"/>
<path d="M180.608 79.279C180.608 79.6315 180.582 79.9135 180.525 80.1314C180.473 80.3429 180.377 80.4519 180.249 80.4519H170.437C170.302 80.4519 170.213 80.3493 170.161 80.1314C170.11 79.9135 170.078 79.6315 170.078 79.2662C170.078 78.9201 170.104 78.6446 170.161 78.4395C170.219 78.2344 170.302 78.1318 170.437 78.1318H180.249C180.377 78.1318 180.473 78.2344 180.525 78.4523C180.576 78.6638 180.608 78.9458 180.608 79.2919V79.279Z" fill="white"/>
<path d="M184.825 67.2432C184.581 66.9997 184.267 66.8779 183.889 66.8779C183.537 66.8779 183.229 66.9997 182.986 67.2432C182.742 67.4868 182.614 67.7944 182.614 68.1597C182.614 68.525 182.742 68.8327 182.986 69.0762C183.236 69.3198 183.537 69.4415 183.889 69.4415C184.267 69.4415 184.575 69.3198 184.825 69.0762C185.069 68.8327 185.184 68.5314 185.184 68.1597C185.184 67.788 185.062 67.4868 184.825 67.2432Z" fill="white"/>
<path d="M187.747 79.2791C187.747 79.6316 187.722 79.9136 187.664 80.1315C187.613 80.343 187.517 80.4519 187.388 80.4519H186.677C185.825 80.4519 185.12 80.311 184.562 80.029C184.325 79.9072 184.113 79.7598 183.927 79.5803C183.742 79.7534 183.53 79.9008 183.293 80.029C182.742 80.311 182.037 80.4519 181.165 80.4519H180.242C180.114 80.4519 180.018 80.3494 179.967 80.1315C179.915 79.92 179.883 79.6316 179.883 79.2663C179.883 78.9202 179.909 78.6446 179.967 78.4395C180.018 78.2344 180.114 78.1319 180.242 78.1319H181.165C181.665 78.1319 182.037 78.0934 182.287 78.0165C182.537 77.9396 182.703 77.7922 182.787 77.5807C182.87 77.3692 182.908 77.0616 182.908 76.6578V71.7485H184.934V76.6578C184.934 77.0616 184.979 77.3692 185.068 77.5807C185.158 77.7922 185.325 77.9396 185.575 78.0165C185.818 78.0934 186.19 78.1319 186.677 78.1319H187.388C187.517 78.1319 187.613 78.2344 187.664 78.4523C187.715 78.6638 187.747 78.9458 187.747 79.2919V79.2791Z" fill="white"/>
<path d="M206.648 78.4462C206.596 78.2347 206.507 78.1258 206.372 78.1258H204.276V76.1839C204.276 75.4276 204.174 74.7098 203.969 74.024C203.764 73.3447 203.443 72.7358 203.014 72.2039C202.591 71.6719 202.046 71.2489 201.392 70.9477C200.732 70.6465 199.957 70.4927 199.053 70.4927C198.149 70.4927 197.438 70.6337 196.771 70.9093C196.099 71.1848 195.515 71.563 195.022 72.0308C194.522 72.4987 194.105 73.0306 193.766 73.6203C193.426 74.2163 193.157 74.8316 192.939 75.4661C192.727 76.107 192.58 76.7286 192.484 77.3439C192.458 77.5169 192.439 77.6836 192.42 77.8438C192.33 77.7669 192.26 77.6772 192.215 77.5618C192.125 77.3503 192.08 77.0427 192.08 76.6389V72.6012H190.055V76.6389C190.055 77.0427 190.01 77.3503 189.933 77.5618C189.85 77.7733 189.683 77.9207 189.433 77.9976C189.183 78.0745 188.811 78.113 188.312 78.113H187.389C187.261 78.113 187.164 78.2155 187.113 78.4206C187.062 78.6257 187.03 78.9077 187.03 79.2474C187.03 79.6127 187.055 79.9011 187.113 80.1126C187.171 80.3241 187.261 80.433 187.389 80.433H188.312C189.177 80.433 189.888 80.292 190.433 80.01C190.696 79.8754 190.926 79.7024 191.132 79.5101C191.324 79.7088 191.542 79.8754 191.798 80.01C192.33 80.292 193.003 80.433 193.823 80.433H206.372C206.5 80.433 206.596 80.3305 206.648 80.1126C206.705 79.9011 206.731 79.6127 206.731 79.2602C206.731 78.9077 206.705 78.6385 206.648 78.4206V78.4462ZM194.189 78.1258C194.227 77.7156 194.291 77.3311 194.387 76.9593C194.548 76.3249 194.778 75.7545 195.079 75.2353C195.387 74.7226 195.74 74.2868 196.15 73.9279C196.56 73.5754 197.009 73.2998 197.508 73.1011C198.002 72.9089 198.534 72.8063 199.092 72.8063C199.764 72.8063 200.341 72.9345 200.816 73.1909C201.29 73.4408 201.649 73.8189 201.892 74.3124C202.136 74.8123 202.258 75.434 202.258 76.1775V78.1194H194.195L194.189 78.1258Z" fill="white"/>
<path d="M217.825 74.7799C217.69 74.2095 217.479 73.6967 217.184 73.2417C216.896 72.7867 216.518 72.4214 216.056 72.1586C215.595 71.8894 215.044 71.7612 214.403 71.7612C213.807 71.7612 213.281 71.8766 212.82 72.1073C212.358 72.338 211.935 72.6393 211.551 73.011C211.166 73.3827 210.814 73.7993 210.506 74.2671C210.192 74.7286 209.891 75.19 209.609 75.6515C209.327 76.1386 209.038 76.568 208.75 76.9397C208.455 77.3114 208.128 77.5998 207.763 77.8049C207.398 78.01 206.936 78.1189 206.379 78.1189C206.25 78.1189 206.154 78.2215 206.103 78.4266C206.045 78.6317 206.02 78.9137 206.02 79.2533C206.02 79.6187 206.045 79.9071 206.103 80.1186C206.154 80.3301 206.244 80.439 206.379 80.439C207.135 80.439 207.795 80.3108 208.353 80.0545C208.872 79.8237 209.346 79.4648 209.782 78.997C209.993 79.17 210.218 79.3431 210.448 79.4969C210.916 79.8173 211.448 80.0801 212.051 80.2852C212.647 80.4903 213.352 80.6377 214.153 80.7146C214.96 80.7915 215.909 80.7979 216.998 80.7402C217.364 80.0929 217.633 79.3815 217.793 78.6188C217.96 77.8562 218.043 77.1576 218.043 76.5295C218.043 75.9014 217.979 75.3374 217.838 74.767L217.825 74.7799ZM214.037 78.4074C213.249 78.324 212.576 78.1574 212.018 77.8946C211.672 77.7344 211.346 77.5421 211.051 77.305C211.147 77.1704 211.237 77.023 211.326 76.8756C211.769 76.1642 212.147 75.6002 212.48 75.1964C212.813 74.7863 213.127 74.4979 213.435 74.3248C213.742 74.1518 214.063 74.0685 214.396 74.0685C214.909 74.0685 215.3 74.2671 215.575 74.6709C215.851 75.0747 215.992 75.6963 215.992 76.5359C215.992 77.0935 215.915 77.6383 215.781 78.183C215.755 78.2792 215.729 78.3817 215.691 78.4778C215.076 78.4778 214.518 78.4586 214.031 78.4074H214.037Z" fill="white"/>
<path d="M12.5744 53.0665V80.4521L11.0234 79.5613C4.20424 75.6326 0.00634766 68.3519 0.00634766 60.4881V40.5049C6.94087 40.5049 12.5744 46.1384 12.5744 53.0729V53.0665Z" fill="white"/>
<path d="M72.8572 40.5049V60.4882C72.8572 68.352 68.6593 75.639 61.8465 79.5613L60.2955 80.4522V53.0666H60.3148C60.3148 46.132 65.9483 40.4985 72.8572 40.4985V40.5049Z" fill="white"/>
<path d="M26.232 52.951V88.3351L19.3872 84.3871V52.951C19.3295 42.3057 10.6453 33.6856 0 33.6856V26.8408C14.4138 26.8408 26.1679 38.5372 26.2256 52.951H26.232Z" fill="white"/>
<path d="M72.8573 13.1128V19.9576C54.6622 19.9576 39.8639 34.756 39.8639 52.9511V92.2382L36.4479 94.2122L33.0319 92.2382V59.7766L32.9998 53.0664C32.9998 43.9657 29.3018 35.7173 23.3223 29.7313C17.3555 23.7581 9.10711 20.0473 0.00634766 20.0473V13.2217C16.2275 13.2217 30.1991 22.9762 36.403 36.8966C42.6069 22.9121 56.6041 13.1192 72.8573 13.1192V13.1128Z" fill="white"/>
<path d="M72.8573 26.8472V33.692C62.1671 33.692 53.4701 42.3762 53.4701 53.0792V84.3999L46.6445 88.3478V53.0792C46.6445 38.6077 58.4178 26.8536 72.8573 26.8536V26.8472Z" fill="white"/>
<path d="M48.003 11.5682C42.267 12.8821 37.7486 17.4004 36.4348 23.1365C35.121 17.4004 30.6026 12.8821 24.8666 11.5682C30.6026 10.2544 35.121 5.73605 36.4348 0C37.7486 5.73605 42.267 10.2544 48.003 11.5682Z" fill="white"/>
</svg>
