<svg width="73" height="56" viewBox="0 0 73 56" fill="none" xmlns="http://www.w3.org/2000/svg">
<path d="M13.8282 55.2182V51.5423C13.8282 50.1325 12.9702 49.2139 11.562 49.2139C10.8223 49.2139 10.0309 49.4594 9.47917 50.2494C9.05018 49.5748 8.44368 49.2139 7.51914 49.2139C6.82091 49.1837 6.15415 49.506 5.74402 50.0719V49.3322H4.57983V55.2138H5.74402V51.8485C5.74402 50.813 6.35644 50.3174 7.21441 50.3174C8.07239 50.3174 8.56203 50.8692 8.56203 51.8485V55.2182H9.72621V51.8485C9.72621 50.813 10.3386 50.3174 11.1966 50.3174C12.0546 50.3174 12.5442 50.8692 12.5442 51.8485V55.2182H13.8282ZM32.9433 49.3973H30.7984V47.6222H29.6372V49.3973H28.4123V50.4328H29.6372V53.1961C29.6372 54.5437 30.1268 55.341 31.5972 55.341C32.1543 55.3294 32.7001 55.1822 33.1874 54.912L32.8191 53.8765C32.4886 54.0831 32.1052 54.1895 31.7155 54.1828C31.1031 54.1828 30.7969 53.8144 30.7969 53.202V50.3855H32.9419V49.4047L32.9433 49.3973ZM43.8485 49.2139C43.2034 49.1995 42.5983 49.5254 42.2553 50.0719V49.3322H41.0911V55.2138H42.2553V51.9106C42.2553 50.9298 42.745 50.3174 43.5423 50.3174C43.8113 50.3283 44.0783 50.3695 44.3381 50.4402L44.7065 49.3367C44.4256 49.2658 44.138 49.2247 43.8485 49.2139ZM27.368 49.8263C26.7556 49.3973 25.8976 49.2139 24.9789 49.2139C23.5086 49.2139 22.5899 49.8884 22.5899 51.0526C22.5899 52.0334 23.2645 52.5837 24.55 52.7686L25.1624 52.8292C25.8369 52.952 26.2659 53.1976 26.2659 53.5038C26.2659 53.9328 25.7763 54.2434 24.8562 54.2434C24.1536 54.2579 23.4655 54.0429 22.8961 53.631L22.2837 54.5496C23.1417 55.162 24.1831 55.2892 24.7985 55.2892C26.5144 55.2892 27.4331 54.4934 27.4331 53.3899C27.4331 52.3544 26.6934 51.8588 25.4109 51.6739L24.7985 51.6133C24.2467 51.5526 23.763 51.3677 23.763 51.0008C23.763 50.5719 24.2526 50.2612 24.9272 50.2612C25.6668 50.2612 26.3976 50.5674 26.7659 50.7508L27.368 49.8263ZM45.1355 52.2775C45.1355 54.0526 46.2996 55.341 48.199 55.341C49.057 55.341 49.6694 55.1576 50.2818 54.6665L49.6694 53.7478C49.2358 54.099 48.6963 54.2934 48.1384 54.2996C47.1029 54.2996 46.2997 53.5038 46.2997 52.3396C46.2997 51.1754 47.0925 50.3855 48.1384 50.3855C48.6963 50.3916 49.2358 50.5861 49.6694 50.9372L50.2818 50.0186C49.6694 49.529 49.057 49.3441 48.199 49.3441C46.3603 49.2213 45.1355 50.5082 45.1355 52.2849V52.2775ZM36.9255 49.2139C35.2096 49.2139 34.0454 50.4387 34.0454 52.2775C34.0454 54.1162 35.2702 55.341 37.0468 55.341C37.9111 55.3593 38.7552 55.0781 39.4358 54.5452L38.8234 53.6872C38.3311 54.0687 37.73 54.2832 37.1075 54.2996C36.3116 54.2996 35.4536 53.81 35.3323 52.7686H39.6829V52.2789C39.6829 50.4402 38.5793 49.2154 36.9255 49.2154V49.2139ZM36.8649 50.3174C37.7228 50.3174 38.3353 50.8692 38.3959 51.7878H35.2111C35.3945 50.9298 35.9507 50.3174 36.8649 50.3174ZM20.9968 52.2775V49.3367H19.8326V50.0763C19.4036 49.5245 18.7971 49.2183 17.9332 49.2183C16.2794 49.2183 15.0531 50.5053 15.0531 52.2819C15.0531 54.0585 16.2779 55.3455 17.9332 55.3455C18.7912 55.3455 19.4036 55.0393 19.8326 54.4875V55.2271H20.9968V52.2775ZM16.2794 52.2775C16.2794 51.1739 16.9539 50.3174 18.1181 50.3174C19.2216 50.3174 19.8932 51.1754 19.8932 52.2775C19.8932 53.4416 19.1536 54.2375 18.1181 54.2375C16.9539 54.2981 16.2794 53.3795 16.2794 52.2775ZM61.5568 49.2139C60.9118 49.1995 60.3067 49.5254 59.9637 50.0719V49.3322H58.7995V55.2138H59.9622V51.9106C59.9622 50.9298 60.4518 50.3174 61.2491 50.3174C61.5182 50.3283 61.7851 50.3695 62.045 50.4402L62.4133 49.3367C62.1324 49.2658 61.8448 49.2247 61.5553 49.2139H61.5568ZM57.0229 52.2775V49.3367H55.8587V50.0763C55.4297 49.5245 54.8232 49.2183 53.9593 49.2183C52.3055 49.2183 51.0792 50.5053 51.0792 52.2819C51.0792 54.0585 52.304 55.3455 53.9593 55.3455C54.8173 55.3455 55.4297 55.0393 55.8587 54.4875V55.2271H57.0229V52.2775ZM52.3055 52.2775C52.3055 51.1739 52.98 50.3174 54.1442 50.3174C55.2477 50.3174 55.9193 51.1754 55.9193 52.2775C55.9193 53.4416 55.1797 54.2375 54.1442 54.2375C52.98 54.2981 52.3055 53.3795 52.3055 52.2775ZM68.8481 52.2775V47.0083H67.684V50.0719C67.255 49.5201 66.6485 49.2139 65.7846 49.2139C64.1308 49.2139 62.9044 50.5009 62.9044 52.2775C62.9044 54.0541 64.1293 55.341 65.7846 55.341C66.6426 55.341 67.255 55.0348 67.684 54.483V55.2227H68.8481V52.2775ZM64.1308 52.2775C64.1308 51.1739 64.8053 50.3174 65.9695 50.3174C67.073 50.3174 67.7446 51.1754 67.7446 52.2775C67.7446 53.4416 67.005 54.2375 65.9695 54.2375C64.8038 54.2996 64.1293 53.381 64.1293 52.2775H64.1308Z" fill="white"/>
<path d="M47.2806 4.73438H26.0205V39.4114H47.2806V4.73438Z" fill="#FF5F00"/>
<path d="M28.1654 22.0729C28.1669 15.3144 31.2586 8.92771 36.5588 4.73434C27.5163 -2.37524 14.5283 -1.3418 6.72391 7.10827C-1.0805 15.5583 -1.0805 28.5874 6.72391 37.0374C14.5283 45.4875 27.5163 46.5209 36.5588 39.4114C31.2586 35.218 28.1669 28.8313 28.1654 22.0729Z" fill="#EB001B"/>
<path d="M72.2788 22.0728C72.2849 30.5115 67.4707 38.2125 59.8819 41.9033C52.2931 45.5941 43.2628 44.6264 36.6284 39.4113C41.9299 35.219 45.022 28.8316 45.022 22.0728C45.022 15.314 41.9299 8.92664 36.6284 4.7343C43.2628 -0.480783 52.2931 -1.44853 59.8819 2.24228C67.4707 5.93309 72.2849 13.6341 72.2788 22.0728Z" fill="#F79E1B"/>
</svg>
