<svg width="472" height="429" viewBox="0 0 472 429" fill="none" xmlns="http://www.w3.org/2000/svg">
<path d="M215.734 432.9C248.278 394.628 305.17 389.432 342.517 421.19L342.488 421.225L248.703 531.515C211.797 574.916 154.906 595.838 99.6703 586.169L87.105 583.957L215.629 432.812L215.734 432.9ZM141.774 370.132C209.691 290.263 328.498 279.509 406.554 345.883L374.46 383.625C316.672 334.485 228.902 342.436 178.671 401.507L31.6792 574.37L-23.7458 564.785L141.774 370.132ZM76.7198 -64.2277C164.407 10.3361 194.154 128.395 162.361 233.74C261.528 185.076 383.153 195.37 471.013 270.081L438.919 307.823C340.562 224.185 191.115 237.835 105.723 338.256L-78.6571 555.086L-106.387 550.278L-115.589 523.682L36.7575 344.523L68.0768 307.341C110.788 257.112 129.508 194.59 125.277 134.066C121.056 73.6722 93.8832 15.2762 44.6872 -26.5572L76.7198 -64.2277ZM12.7685 10.9078C90.6853 77.1638 99.3315 195.748 31.9973 275.565L32.0321 275.594L-134.031 470.883L-152.503 417.63L-4.96924 244.131C44.6789 185.113 38.1897 97.6184 -19.3558 48.685L12.7685 10.9078ZM-51.3238 86.3506C-13.8377 118.227 -9.82345 175.214 -42.3682 213.486L-42.3374 213.452L-170.863 364.596L-175.066 352.55C-193.49 299.521 -182.014 240.041 -145.108 196.64L-51.3238 86.3506ZM335.693 30.2521C315.876 67.9492 319.096 113.656 343.937 147.274C306.763 128.158 261.133 132.326 227.111 157.944C246.929 120.247 243.71 74.5401 218.868 40.922C256.041 60.0376 301.671 55.8704 335.693 30.2521Z" fill="url(#paint0_linear_315_394)"/>
<defs>
<linearGradient id="paint0_linear_315_394" x1="-49.6304" y1="94.6987" x2="417.897" y2="278.534" gradientUnits="userSpaceOnUse">
<stop stop-color="#043559" stop-opacity="0.67"/>
<stop offset="1" stop-color="#043458" stop-opacity="0"/>
</linearGradient>
</defs>
</svg>
