<svg width="12" height="12" viewBox="0 0 12 12" fill="none" xmlns="http://www.w3.org/2000/svg">
<path fill-rule="evenodd" clip-rule="evenodd" d="M10.4981 3.8141C10.0651 2.92467 9.37605 2.18286 8.52684 1.68455C8.04515 2.35916 7.04924 3.39835 6.75572 3.39835C6.39962 3.39835 6.3277 1.64342 6.31334 1.00966C6.20972 1.00325 6.10524 1 6 1C5.53645 1 5.08763 1.06308 4.66166 1.18113C5.0743 1.15008 5.35004 1.1627 5.35004 1.1627C5.35004 1.1627 5.73475 2.02073 5.73475 2.41011C5.73475 2.79948 5.4816 3.0845 5.4816 3.26245C5.4816 3.44041 6.32115 3.72262 6.32115 4.2316C6.32115 4.74058 4.253 5.32054 4.36557 5.8C4.47814 6.27946 4.95207 6.61627 4.53702 6.61627C4.12197 6.61627 4.00516 5.66709 3.37526 5.66709C2.74536 5.66709 2.06942 5.95323 2.18899 6.19725C2.30856 6.44127 2.92541 7.08406 3.24571 7.08406C3.56602 7.08406 3.57292 7.8169 3.81917 7.97904C4.06542 8.14118 4.45153 8.19748 4.45153 8.19748C4.58629 8.22445 4.70834 8.14339 4.74481 8.00851C4.74481 8.00851 4.71388 7.58764 5.35004 7.58764C5.9862 7.58764 6.22937 8.27746 6.55 8.43989C6.87062 8.60231 7.69234 8.99651 7.80746 9.29387C7.92257 9.59123 7.75441 10.1107 7.47888 10.2834C7.32012 10.3828 7.10928 10.6768 6.95907 10.9081C8.08814 10.6888 9.08153 10.0895 9.80084 9.24878C9.3385 9.21275 8.67097 9.09635 8.38008 8.72037C7.95877 8.1758 8.4607 7.56758 8.67788 7.14734C8.89506 6.7271 9.35923 6.02059 9.35923 5.88208C9.35923 5.74358 9.19584 5.72959 8.90662 5.51798C8.6174 5.30636 8.84628 4.80269 9.09062 4.80269C9.33496 4.80269 9.83529 5.29942 10.0419 5.29942C10.2484 5.29942 9.65312 4.83134 9.65312 4.34589C9.65312 3.98914 10.2053 3.85836 10.4981 3.8141ZM1.10009 4.99964C1.03446 5.32286 1 5.65741 1 6C1 8.36881 2.64728 10.3529 4.85881 10.8692C4.92218 10.6069 5.04869 10.0059 4.95207 9.73408C4.82656 9.38097 4.00516 9.27969 4.00516 8.85376C4.00516 8.42783 4.4793 8.33601 4.4793 8.33601C4.4793 8.33601 1.71863 8.13232 1.10009 4.99964ZM6 12C2.68629 12 0 9.31371 0 6C0 2.68629 2.68629 0 6 0C9.31371 0 12 2.68629 12 6C12 9.31371 9.31371 12 6 12Z" fill="white"/>
</svg>
