<svg width="34" height="44" viewBox="0 0 34 44" fill="none" xmlns="http://www.w3.org/2000/svg">
<path d="M6.23629 24.4401V37.0528L5.52198 36.6425C2.38136 34.8331 0.447998 31.4799 0.447998 27.8582V18.6548C3.64174 18.6548 6.23629 21.2493 6.23629 24.4431V24.4401Z" fill="#FD9A33"/>
<path d="M33.9999 18.6548V27.8582C33.9999 31.48 32.0666 34.8361 28.9289 36.6425L28.2146 37.0528V24.4401H28.2235C28.2235 21.2464 30.818 18.6519 33.9999 18.6519V18.6548Z" fill="#FD9A33"/>
<path d="M12.5264 24.3871V40.6834L9.37397 38.8652V24.3871C9.34741 19.4843 5.34785 15.5142 0.445068 15.5142V12.3618C7.08345 12.3618 12.4969 17.7487 12.5234 24.3871H12.5264Z" fill="#66D86E"/>
<path d="M34 6.03906V9.19148C25.6201 9.19148 18.8046 16.007 18.8046 24.3869V42.4808L17.2314 43.3899L15.6581 42.4808V27.5304L15.6434 24.44C15.6434 20.2486 13.9402 16.4497 11.1863 13.6928C8.43826 10.9418 4.63942 9.23281 0.447998 9.23281V6.08924C7.91876 6.08924 14.3535 10.5817 17.2107 16.9928C20.068 10.5522 26.5145 6.04201 34 6.04201V6.03906Z" fill="#1396FD"/>
<path d="M34 12.3647V15.5172C29.0765 15.5172 25.0711 19.5167 25.0711 24.4461V38.8711L21.9275 40.6893V24.4461C21.9275 17.7811 27.3498 12.3677 34 12.3677V12.3647Z" fill="#66D86E"/>
<path d="M22.5532 5.32783C19.9115 5.93293 17.8305 8.01388 17.2254 10.6557C16.6203 8.01388 14.5394 5.93293 11.8976 5.32783C14.5394 4.72273 16.6203 2.64178 17.2254 0C17.8305 2.64178 19.9115 4.72273 22.5532 5.32783Z" fill="#1396FD"/>
</svg>
