<svg width="64" height="58" viewBox="0 0 64 58" fill="none" xmlns="http://www.w3.org/2000/svg">
<g clip-path="url(#clip0_4376_1284)">
<path d="M0.845699 15.58C0.845699 23.7247 6.5964 30.0028 15.5606 29.6635C14.715 41.032 5.9198 50.8735 0 55.4548L1.6914 58C14.0384 50.1947 29.5991 34.0751 29.5991 17.4465C29.5991 7.9444 24.1867 0.987598 15.3915 0.987598C6.5964 0.987598 0.845699 7.7748 0.845699 15.58ZM35.2466 15.58C35.2466 23.7247 40.9973 30.0028 49.9616 29.6635C49.1159 41.032 40.3208 50.8735 34.401 55.4548L36.0923 58C48.4394 50.1947 64 34.0751 64 17.4465C64 7.9444 58.5876 0.987598 49.7925 0.987598C40.9973 0.987598 35.2466 7.7748 35.2466 15.58Z" fill="#1396FD"/>
</g>
<defs>
<clipPath id="clip0_4376_1284">
<rect width="64" height="58" fill="white" transform="matrix(-1 0 0 -1 64 58)"/>
</clipPath>
</defs>
</svg>
