<svg width="14" height="16" viewBox="0 0 14 16" fill="none" xmlns="http://www.w3.org/2000/svg">
<path d="M7 16C7.53043 16 8.03914 15.7893 8.41421 15.4142C8.78929 15.0392 9 14.5305 9 14.0001H5C5 14.5305 5.21071 15.0392 5.58579 15.4142C5.96086 15.7893 6.46957 16 7 16ZM7 1.91877L6.203 2.07976C5.29879 2.2636 4.48594 2.75438 3.9022 3.46894C3.31846 4.1835 2.99972 5.07788 3 6.00055C3 6.62851 2.866 8.19743 2.541 9.74234C2.381 10.5093 2.165 11.3083 1.878 12.0002H12.122C11.835 11.3083 11.62 10.5103 11.459 9.74234C11.134 8.19743 11 6.62851 11 6.00055C11 5.07805 10.6812 4.1839 10.0975 3.46955C9.51376 2.7552 8.70104 2.26457 7.797 2.08076L7 1.91877ZM13.22 12.0002C13.443 12.4472 13.701 12.8012 14 13.0002H0C0.299 12.8012 0.557 12.4472 0.78 12.0002C1.68 10.2003 2 6.8805 2 6.00055C2 3.58068 3.72 1.56079 6.005 1.09981C5.99104 0.960776 6.00638 0.820356 6.05003 0.687611C6.09368 0.554865 6.16467 0.432741 6.25842 0.329115C6.35217 0.225489 6.4666 0.142662 6.59433 0.0859748C6.72206 0.0292879 6.86026 0 7 0C7.13974 0 7.27794 0.0292879 7.40567 0.0859748C7.5334 0.142662 7.64783 0.225489 7.74158 0.329115C7.83533 0.432741 7.90632 0.554865 7.94997 0.687611C7.99362 0.820356 8.00896 0.960776 7.995 1.09981C9.12545 1.32935 10.1418 1.94268 10.8717 2.83585C11.6016 3.72902 12.0002 4.84708 12 6.00055C12 6.8805 12.32 10.2003 13.22 12.0002Z" fill="#778D9D"/>
</svg>
