<svg width="24" height="24" viewBox="0 0 24 24" fill="none" xmlns="http://www.w3.org/2000/svg">
<path d="M12 0.75C18.2132 0.75 23.25 5.7868 23.25 12C23.25 18.2132 18.2132 23.25 12 23.25C5.7868 23.25 0.75 18.2132 0.75 12C0.75 5.7868 5.7868 0.75 12 0.75Z" fill="white"/>
<path d="M12 0.75C18.2132 0.75 23.25 5.7868 23.25 12C23.25 18.2132 18.2132 23.25 12 23.25C5.7868 23.25 0.75 18.2132 0.75 12C0.75 5.7868 5.7868 0.75 12 0.75Z" stroke="#043458" stroke-width="1.5"/>
<path d="M16.9 11.2012C17.1122 11.2012 17.3154 11.2855 17.4655 11.4355C17.6154 11.5856 17.6998 11.7888 17.6998 12.001C17.6998 12.2131 17.6154 12.4164 17.4655 12.5664C17.3154 12.7164 17.1122 12.8008 16.9 12.8008H7.10022C6.88814 12.8008 6.6848 12.7163 6.53479 12.5664C6.38481 12.4164 6.30047 12.2131 6.30042 12.001C6.30042 11.7888 6.38476 11.5856 6.53479 11.4355C6.68482 11.2855 6.88805 11.2012 7.10022 11.2012H16.9Z" fill="#043458" stroke="#043458" stroke-width="0.2"/>
</svg>
