<svg width="24" height="24" viewBox="0 0 24 24" fill="none" xmlns="http://www.w3.org/2000/svg">
<rect x="0.75" y="0.75" width="22.5" height="22.5" rx="11.25" fill="white"/>
<rect x="0.75" y="0.75" width="22.5" height="22.5" rx="11.25" stroke="#043458" stroke-width="1.5"/>
<path d="M12 6.90039C12.1923 6.90039 12.3767 6.97634 12.5127 7.1123C12.6487 7.24827 12.7246 7.43272 12.7246 7.625V11.2754H16.375C16.5673 11.2754 16.7517 11.3513 16.8877 11.4873C17.0237 11.6233 17.0996 11.8077 17.0996 12C17.0996 12.1923 17.0237 12.3767 16.8877 12.5127C16.7517 12.6487 16.5673 12.7246 16.375 12.7246H12.7246V16.375C12.7246 16.5673 12.6487 16.7517 12.5127 16.8877C12.3767 17.0237 12.1923 17.0996 12 17.0996C11.8077 17.0996 11.6233 17.0237 11.4873 16.8877C11.3513 16.7517 11.2754 16.5673 11.2754 16.375V12.7246H7.625C7.43272 12.7246 7.24827 12.6487 7.1123 12.5127C6.97634 12.3767 6.90039 12.1923 6.90039 12C6.90039 11.8077 6.97634 11.6233 7.1123 11.4873C7.24827 11.3513 7.43272 11.2754 7.625 11.2754H11.2754V7.625C11.2754 7.43272 11.3513 7.24827 11.4873 7.1123C11.6233 6.97634 11.8077 6.90039 12 6.90039Z" fill="#043458" stroke="#043458" stroke-width="0.2"/>
</svg>
