<svg width="46" height="45" viewBox="0 0 46 45" fill="none" xmlns="http://www.w3.org/2000/svg">
<circle cx="23.124" cy="22.292" r="22.292" fill="white" fill-opacity="0.1"/>
<circle cx="23.124" cy="22.292" r="22.042" stroke="#E5E5EA" stroke-opacity="0.8" stroke-width="0.5"/>
<path fill-rule="evenodd" clip-rule="evenodd" d="M29.124 10.584H17.124C13.8243 10.584 11.124 13.2831 11.124 16.584V28.584C11.124 31.8837 13.8243 34.584 17.124 34.584H29.124C32.4237 34.584 35.124 31.8837 35.124 28.584V16.584C35.124 13.2831 32.4237 10.584 29.124 10.584ZM23.1241 27.5838C20.3623 27.5838 18.124 25.3446 18.124 22.584C18.124 19.8222 20.3623 17.5839 23.1241 17.5839C25.8847 17.5839 28.1242 19.8222 28.1242 22.584C28.1242 25.3446 25.8847 27.5838 23.1241 27.5838ZM28.124 16.0839C28.124 16.9122 28.7948 17.5839 29.624 17.5839C30.4532 17.5839 31.124 16.9122 31.124 16.0839C31.124 15.2556 30.4532 14.5839 29.624 14.5839C28.7948 14.5839 28.124 15.2556 28.124 16.0839Z" fill="#F2F2F7"/>
</svg>
