<svg width="32" height="32" viewBox="0 0 32 32" fill="none" xmlns="http://www.w3.org/2000/svg">
<path d="M9.42998 13.084L6.68597 15.828C5.56066 16.9533 4.92847 18.4796 4.92847 20.071C4.92847 21.6624 5.56066 23.1887 6.68597 24.314C7.81129 25.4393 9.33754 26.0715 10.929 26.0715C12.5204 26.0715 14.0467 25.4393 15.172 24.314L18.828 20.656C19.5066 19.9773 20.0124 19.1457 20.3032 18.2311C20.5939 17.3164 20.6609 16.3454 20.4987 15.3995C20.3365 14.4535 19.9497 13.5603 19.3708 12.7948C18.792 12.0293 18.0379 11.4138 17.172 11L16 12.172C15.881 12.2912 15.7775 12.4249 15.692 12.57C16.361 12.7623 16.9683 13.126 17.4538 13.6249C17.9392 14.1239 18.2861 14.7409 18.46 15.415C18.6339 16.089 18.6289 16.7968 18.4454 17.4684C18.262 18.1399 17.9065 18.752 17.414 19.244L13.76 22.9C13.0094 23.6506 11.9914 24.0722 10.93 24.0722C9.86852 24.0722 8.85054 23.6506 8.09998 22.9C7.34941 22.1494 6.92775 21.1315 6.92775 20.07C6.92775 19.0085 7.34941 17.9906 8.09998 17.24L9.68598 15.656C9.46158 14.8176 9.37511 13.9502 9.42998 13.084Z" fill="white"/>
<path d="M13.1721 9.3432C12.4935 10.0219 11.9876 10.8534 11.6969 11.7681C11.4062 12.6828 11.3391 13.6538 11.5014 14.5997C11.6636 15.5457 12.0504 16.4389 12.6292 17.2044C13.2081 17.9699 13.9621 18.5854 14.8281 18.9992L16.3781 17.4472C15.7 17.2653 15.0817 16.9081 14.5854 16.4116C14.089 15.9151 13.7321 15.2966 13.5505 14.6184C13.3689 13.9403 13.369 13.2262 13.5508 12.5481C13.7326 11.87 14.0896 11.2516 14.5861 10.7552L18.2401 7.0992C18.9907 6.34863 20.0086 5.92697 21.0701 5.92697C22.1316 5.92697 23.1495 6.34863 23.9001 7.0992C24.6507 7.84976 25.0723 8.86774 25.0723 9.9292C25.0723 10.9907 24.6507 12.0086 23.9001 12.7592L22.3141 14.3432C22.5381 15.1832 22.6241 16.0532 22.5701 16.9172L25.3141 14.1732C26.4394 13.0479 27.0716 11.5216 27.0716 9.9302C27.0716 8.33876 26.4394 6.81251 25.3141 5.6872C24.1888 4.56188 22.6625 3.92969 21.0711 3.92969C19.4797 3.92969 17.9534 4.56188 16.8281 5.6872L13.1721 9.3432Z" fill="white"/>
</svg>
