<svg width="18" height="17" viewBox="0 0 18 17" fill="none" xmlns="http://www.w3.org/2000/svg">
<path d="M7.7341 0.634916C8.06709 -0.209049 9.26152 -0.209049 9.59452 0.634916L11.1547 4.58909C11.2995 4.95618 11.6467 5.20376 12.041 5.22109L16.3709 5.41151C17.3048 5.45258 17.6767 6.63848 16.9335 7.20554L13.6226 9.73193C13.2949 9.98196 13.1542 10.4074 13.2682 10.8035L14.4055 14.755C14.6595 15.6374 13.6897 16.3668 12.9124 15.8783L9.19644 13.5428C8.87114 13.3383 8.45747 13.3383 8.13218 13.5428L4.41623 15.8783C3.63887 16.3668 2.66916 15.6374 2.92311 14.755L4.06043 10.8035C4.17443 10.4074 4.03373 9.98196 3.70605 9.73193L0.395079 7.20554C-0.348084 6.63848 0.0238621 5.45258 0.957758 5.41151L5.28765 5.22109C5.6819 5.20376 6.02909 4.95618 6.17393 4.58909L7.7341 0.634916Z" fill="#D9D9D9"/>
</svg>
