<svg width="32" height="32" viewBox="0 0 32 32" fill="none" xmlns="http://www.w3.org/2000/svg">
<path d="M1 19.7998C1.26522 19.7998 1.51957 19.9052 1.70711 20.0927C1.89464 20.2802 2 20.5346 2 20.7998V25.7998C2 26.3302 2.21071 26.8389 2.58579 27.214C2.96086 27.5891 3.46957 27.7998 4 27.7998H28C28.5304 27.7998 29.0391 27.5891 29.4142 27.214C29.7893 26.8389 30 26.3302 30 25.7998V20.7998C30 20.5346 30.1054 20.2802 30.2929 20.0927C30.4804 19.9052 30.7348 19.7998 31 19.7998C31.2652 19.7998 31.5196 19.9052 31.7071 20.0927C31.8946 20.2802 32 20.5346 32 20.7998V25.7998C32 26.8607 31.5786 27.8781 30.8284 28.6282C30.0783 29.3784 29.0609 29.7998 28 29.7998H4C2.93913 29.7998 1.92172 29.3784 1.17157 28.6282C0.421427 27.8781 0 26.8607 0 25.7998V20.7998C0 20.5346 0.105357 20.2802 0.292893 20.0927C0.48043 19.9052 0.734784 19.7998 1 19.7998Z" fill="#778D9D"/>
<path d="M15.292 2.29183C15.3849 2.19871 15.4953 2.12482 15.6168 2.07441C15.7383 2.024 15.8685 1.99805 16 1.99805C16.1316 1.99805 16.2618 2.024 16.3833 2.07441C16.5048 2.12482 16.6152 2.19871 16.708 2.29183L22.708 8.29183C22.8958 8.47961 23.0013 8.73428 23.0013 8.99983C23.0013 9.26539 22.8958 9.52006 22.708 9.70783C22.5203 9.89561 22.2656 10.0011 22 10.0011C21.7345 10.0011 21.4798 9.89561 21.292 9.70783L17 5.41383V22.9998C17 23.2651 16.8947 23.5194 16.7072 23.7069C16.5196 23.8945 16.2653 23.9998 16 23.9998C15.7348 23.9998 15.4805 23.8945 15.2929 23.7069C15.1054 23.5194 15 23.2651 15 22.9998V5.41383L10.708 9.70783C10.6151 9.80081 10.5047 9.87456 10.3832 9.92488C10.2617 9.9752 10.1315 10.0011 10 10.0011C9.86856 10.0011 9.73835 9.9752 9.61688 9.92488C9.4954 9.87456 9.38502 9.80081 9.29204 9.70783C9.19907 9.61486 9.12531 9.50448 9.075 9.383C9.02468 9.26152 8.99878 9.13132 8.99878 8.99983C8.99878 8.86835 9.02468 8.73815 9.075 8.61667C9.12531 8.49519 9.19907 8.38481 9.29204 8.29183L15.292 2.29183Z" fill="#778D9D"/>
</svg>
