<svg width="24" height="24" viewBox="0 0 24 24" fill="none" xmlns="http://www.w3.org/2000/svg">
<g clip-path="url(#clip0_4822_16735)">
<path d="M11.907 3.02222C11.9364 3.0061 11.9695 2.99783 12.003 2.99822C12.0361 2.99809 12.0686 3.00635 12.0975 3.02222C12.1317 3.04302 12.1596 3.07253 12.1785 3.10772L22.464 20.6082C22.518 20.6982 22.5165 20.7942 22.467 20.8827C22.4464 20.9179 22.4189 20.9485 22.386 20.9727C22.357 20.9926 22.322 21.0016 22.287 20.9982H1.71904C1.68407 21.0016 1.64904 20.9926 1.62004 20.9727C1.5872 20.9485 1.55964 20.9179 1.53904 20.8827C1.51495 20.8409 1.50252 20.7933 1.50305 20.7451C1.50358 20.6968 1.51704 20.6495 1.54204 20.6082L11.826 3.10772C11.845 3.07253 11.8729 3.04302 11.907 3.02222ZM13.473 2.34722C13.3246 2.08856 13.1105 1.87367 12.8524 1.72423C12.5942 1.57479 12.3013 1.49609 12.003 1.49609C11.7048 1.49609 11.4118 1.57479 11.1537 1.72423C10.8956 1.87367 10.6815 2.08856 10.533 2.34722L0.247541 19.8477C-0.437959 21.0147 0.384041 22.4982 1.71754 22.4982H22.287C23.6205 22.4982 24.444 21.0132 23.757 19.8477L13.473 2.34722Z" fill="black"/>
<path d="M10.5029 17.9997C10.5029 17.8027 10.5417 17.6077 10.6171 17.4257C10.6925 17.2437 10.803 17.0783 10.9423 16.939C11.0816 16.7997 11.2469 16.6892 11.4289 16.6139C11.6109 16.5385 11.8059 16.4997 12.0029 16.4997C12.1999 16.4997 12.395 16.5385 12.577 16.6139C12.7589 16.6892 12.9243 16.7997 13.0636 16.939C13.2029 17.0783 13.3134 17.2437 13.3887 17.4257C13.4641 17.6077 13.5029 17.8027 13.5029 17.9997C13.5029 18.3975 13.3449 18.779 13.0636 19.0603C12.7823 19.3417 12.4008 19.4997 12.0029 19.4997C11.6051 19.4997 11.2236 19.3417 10.9423 19.0603C10.661 18.779 10.5029 18.3975 10.5029 17.9997ZM10.6499 8.99219C10.63 8.80295 10.65 8.61163 10.7087 8.43063C10.7675 8.24963 10.8636 8.08301 10.9909 7.94157C11.1182 7.80013 11.2738 7.68703 11.4476 7.60961C11.6215 7.53219 11.8096 7.49219 11.9999 7.49219C12.1902 7.49219 12.3784 7.53219 12.5522 7.60961C12.726 7.68703 12.8817 7.80013 13.009 7.94157C13.1362 8.08301 13.2324 8.24963 13.2911 8.43063C13.3499 8.61163 13.3699 8.80295 13.3499 8.99219L12.8249 14.2527C12.8073 14.4593 12.7127 14.6519 12.56 14.7921C12.4072 14.9324 12.2073 15.0103 11.9999 15.0103C11.7925 15.0103 11.5927 14.9324 11.4399 14.7921C11.2871 14.6519 11.1926 14.4593 11.1749 14.2527L10.6499 8.99219Z" fill="black"/>
</g>
<defs>
<clipPath id="clip0_4822_16735">
<rect width="24" height="24" fill="white"/>
</clipPath>
</defs>
</svg>
