<svg width="27" height="27" viewBox="0 0 27 27" fill="none" xmlns="http://www.w3.org/2000/svg">
<path d="M13.4979 0.0546875C6.12028 0.0546875 0.115019 6.04412 0.11189 13.4056C0.111107 15.7588 0.727673 18.0558 1.89899 20.0803L0 27.0001L7.09599 25.1433C9.05132 26.2071 11.2523 26.7675 13.4925 26.7683H13.4979C20.8748 26.7683 26.8801 20.7781 26.8832 13.4166C26.8848 9.84897 25.4936 6.49446 22.9663 3.97115C20.439 1.44707 17.0784 0.0562485 13.4979 0.0546875ZM13.4979 24.5135H13.4933C11.4972 24.5135 9.53878 23.9773 7.8307 22.9666L7.42461 22.7262L3.21428 23.8282L4.33787 19.733L4.0734 19.3131C2.95999 17.5461 2.37159 15.5036 2.37237 13.4072C2.37472 7.28821 7.36593 2.31028 13.5026 2.31028C16.4744 2.31106 19.2677 3.46696 21.3678 5.5649C23.4686 7.66206 24.6243 10.4507 24.6235 13.4158C24.6212 19.5348 19.63 24.5135 13.4979 24.5135ZM19.6002 16.2021C19.2661 16.0351 17.6214 15.2281 17.3147 15.1165C17.008 15.0048 16.785 14.9494 16.562 15.2835C16.339 15.6175 15.6982 16.3691 15.5034 16.5916C15.3085 16.8148 15.1129 16.8421 14.7788 16.6751C14.4447 16.5081 13.3665 16.1553 12.0895 15.0189C11.0951 14.1346 10.4237 13.0419 10.2289 12.7079C10.0341 12.3738 10.2078 12.1935 10.376 12.0273C10.5262 11.8782 10.7101 11.6378 10.8775 11.4427C11.045 11.2476 11.1005 11.1087 11.2116 10.8855C11.3228 10.663 11.2672 10.4679 11.1835 10.3009C11.0998 10.1338 10.4308 8.49171 10.1522 7.82362C9.88071 7.17348 9.60529 7.26089 9.3995 7.25074C9.20467 7.2406 8.98168 7.23904 8.75868 7.23904C8.53568 7.23904 8.17341 7.32255 7.86669 7.65659C7.55998 7.99064 6.69616 8.79766 6.69616 10.4398C6.69616 12.0819 7.89486 13.6687 8.06152 13.8911C8.22897 14.1135 10.4198 17.4837 13.7749 18.9283C14.573 19.2717 15.1959 19.477 15.6817 19.6308C16.483 19.8844 17.2122 19.8485 17.7881 19.7627C18.4305 19.6667 19.7669 18.9557 20.0454 18.1759C20.324 17.397 20.324 16.7289 20.2403 16.5892C20.1565 16.4503 19.9335 16.3668 19.5994 16.1998L19.6002 16.2021Z" fill="#F2F2F7"/>
</svg>
