<svg width="45" height="45" viewBox="0 0 45 45" fill="none" xmlns="http://www.w3.org/2000/svg">
<path fill-rule="evenodd" clip-rule="evenodd" d="M32.0529 14.3799C33.0891 14.5149 34.0795 15.5226 34.2055 16.5735C34.6516 20.425 34.6516 24.1597 34.2055 28.01C34.0795 29.0609 33.0891 30.0698 32.0529 30.2036C25.7345 30.9888 19.3447 30.9888 13.0281 30.2036C11.9909 30.0695 11.0006 29.0609 10.8746 28.01C10.4285 24.1594 10.4285 20.425 10.8746 16.5735C11.0006 15.5226 11.9909 14.5146 13.0281 14.3799C19.3447 13.5947 25.7342 13.5947 32.0529 14.3799ZM20.5398 18.2922V26.2925L26.54 22.2925L20.5398 18.2922Z" fill="#F2F2F7"/>
<circle cx="22.54" cy="22.292" r="22.292" fill="white" fill-opacity="0.1"/>
<circle cx="22.54" cy="22.292" r="22.042" stroke="#E5E5EA" stroke-opacity="0.8" stroke-width="0.5"/>
</svg>
